<svg xmlns="http://www.w3.org/2000/svg" width="256" height="256" viewBox="0 0 256 256">
  <defs>
    <linearGradient id="bg" x1="0" y1="0" x2="0" y2="1">
      <stop offset="0%" stop-color="#f8f4eb"/>
      <stop offset="100%" stop-color="#ece4d8"/>
    </linearGradient>
  </defs>
  <rect x="18" y="18" width="220" height="220" rx="34" fill="url(#bg)" stroke="#6f665c" stroke-width="12"/>
  <rect x="42" y="42" width="172" height="172" rx="18" fill="#fffdfa" stroke="#c8beb0" stroke-width="4"/>
  <g stroke="#ddd2c2" stroke-width="3">
    <line x1="85" y1="56" x2="85" y2="200"/>
    <line x1="128" y1="56" x2="128" y2="200"/>
    <line x1="171" y1="56" x2="171" y2="200"/>
    <line x1="56" y1="92" x2="200" y2="92"/>
    <line x1="56" y1="128" x2="200" y2="128"/>
    <line x1="56" y1="164" x2="200" y2="164"/>
  </g>
  <g stroke="#5e5850" stroke-width="6" stroke-linecap="round">
    <line x1="74" y1="92" x2="74" y2="192"/>
    <line x1="106" y1="70" x2="106" y2="182"/>
    <line x1="138" y1="104" x2="138" y2="202"/>
    <line x1="170" y1="82" x2="170" y2="170"/>
  </g>
  <g>
    <rect x="60" y="124" width="28" height="42" rx="5" fill="#d94a4a"/>
    <rect x="92" y="104" width="28" height="52" rx="5" fill="#00b56a"/>
    <rect x="124" y="138" width="28" height="34" rx="5" fill="#d94a4a"/>
    <rect x="156" y="112" width="28" height="38" rx="5" fill="#00b56a"/>
  </g>
</svg>
